<svg width="176" height="52" viewBox="0 0 176 52" fill="none" xmlns="http://www.w3.org/2000/svg">
<g clip-path="url(#clip0)">
<path d="M7.76534 23.3826L10.4107 22.0738L14.592 15.7919L15.872 15.2685L17.2374 21.6376L15.4454 21.8993L14.08 19.2819L13.056 23.3826H17.5787L22.272 24.604L24.1494 23.3826L27.3067 26.698L28.672 20.5906L30.8907 22.8591L32.256 20.9396L34.4747 20.3289L37.7174 17.2752L38.2294 15.7919L40.8747 16.2282L41.9841 17.7114L40.0214 21.8993L44.8854 19.3691V18.1476L46.7627 17.7114L48.8107 19.8054L50.8587 17.2752V15.5302L54.1867 13.1745L55.5521 11.1678H57.6854L61.4401 3.40268L64.6828 0L65.8774 1.91946L64.0001 4.36242L64.6828 5.93289L66.4748 6.28188L67.9254 12.7383V18.1476L70.4854 21.7248L71.7654 26.698L67.3281 23.8188L65.3654 15.5302L64.1707 15.7919L64.0001 21.3758L60.7574 26.698L59.8187 34.8121L62.0374 35.3356L62.9761 34.2013L65.1094 36.6443L66.7307 43.9732L66.5601 48.6846H64.5121L63.7441 42.0537L62.2934 44.0604L59.1361 43.3624L56.5761 41.1812L53.6747 42.2282L53.8454 46.9396L51.5414 47.5503L48.1281 50.1678L44.0321 49.6443L42.4107 48.6846L39.8507 49.1208L40.7041 50.1678L38.6561 51.3893L37.0347 50.604L33.9627 52L29.2694 49.6443L27.4774 45.4564L25.9414 45.6309L24.1494 44.1477L24.064 43.0134L18.3467 42.4027L17.408 45.5436L13.824 43.8859L12.032 40.8322H8.19201L7.76534 45.7181L5.54667 46.4161L4.43734 50.8658L3.584 50.0805L0 40.745L4.26667 38.651L3.584 34.5503L2.90134 30.3624L4.77867 27.6577L4.18134 26L6.74134 23.2081L7.76534 23.3826ZM64.5121 33.6779L68.4374 39.6107L69.7174 39.0872L68.0961 36.6443L64.5121 32.8054V33.6779ZM24.4054 21.6376V19.8926L27.392 17.7114L29.952 16.4027H26.9654L24.32 17.9732L22.6987 19.4564V21.6376H24.4054Z" fill="white"/>
<path d="M97.4852 39H98.5506V31.7045H102.872C103.178 31.7045 103.468 31.6875 103.758 31.6534L107.721 39H108.948L104.832 31.4233C106.954 30.767 108.181 29.0028 108.181 26.6506C108.181 23.625 106.178 21.5455 102.863 21.5455H97.4852V39ZM98.5506 30.7074V22.5341H102.838C105.522 22.5341 107.124 24.1619 107.124 26.6506C107.124 29.1222 105.522 30.7074 102.846 30.7074H98.5506ZM121.178 34.3551C121.178 36.6903 119.44 38.1562 117.394 38.1562C115.298 38.1562 113.832 36.6818 113.832 34.5V25.9091H112.792V34.5426C112.792 37.4062 114.616 39.1705 117.181 39.1705C119.048 39.1705 120.479 38.2244 121.093 36.8778H121.178V39H122.218V25.9091H121.178V34.3551ZM135.564 28.7301C134.934 26.804 133.553 25.7131 131.337 25.7131C128.831 25.7131 127.033 27.1619 127.033 29.2756C127.033 30.9631 128.099 32.1477 130.238 32.6676L132.326 33.179C133.885 33.5625 134.661 34.4062 134.661 35.6165C134.661 37.2017 133.229 38.3182 131.09 38.3182C129.155 38.3182 127.954 37.4148 127.579 35.7017L126.581 35.9574C127.033 38.0881 128.661 39.2727 131.099 39.2727C133.826 39.2727 135.718 37.7557 135.718 35.5824C135.718 33.8949 134.661 32.7273 132.599 32.2159L130.587 31.7131C128.883 31.2955 128.064 30.4858 128.064 29.2415C128.064 27.7074 129.411 26.6591 131.337 26.6591C133.127 26.6591 134.124 27.554 134.601 28.9858L135.564 28.7301ZM148.355 28.7301C147.724 26.804 146.343 25.7131 144.127 25.7131C141.622 25.7131 139.823 27.1619 139.823 29.2756C139.823 30.9631 140.889 32.1477 143.028 32.6676L145.116 33.179C146.676 33.5625 147.451 34.4062 147.451 35.6165C147.451 37.2017 146.02 38.3182 143.88 38.3182C141.946 38.3182 140.744 37.4148 140.369 35.7017L139.372 35.9574C139.823 38.0881 141.451 39.2727 143.889 39.2727C146.616 39.2727 148.508 37.7557 148.508 35.5824C148.508 33.8949 147.451 32.7273 145.389 32.2159L143.377 31.7131C141.673 31.2955 140.855 30.4858 140.855 29.2415C140.855 27.7074 142.201 26.6591 144.127 26.6591C145.917 26.6591 146.914 27.554 147.392 28.9858L148.355 28.7301ZM152.878 39H153.909V25.9091H152.878V39ZM153.398 23.5909C153.858 23.5909 154.233 23.2244 154.233 22.7727C154.233 22.321 153.858 21.9545 153.398 21.9545C152.938 21.9545 152.554 22.321 152.554 22.7727C152.554 23.2244 152.938 23.5909 153.398 23.5909ZM162.453 39.2812C164.533 39.2812 165.999 38.1051 166.68 36.6392H166.757V39H167.797V29.8551C167.797 26.9915 165.666 25.7131 163.339 25.7131C161.32 25.7131 159.428 26.625 158.678 28.5085L159.658 28.875C160.169 27.5795 161.499 26.6676 163.365 26.6676C165.479 26.6676 166.757 27.8864 166.757 29.7869V30.3324C166.757 31.3381 165.291 31.4403 163.297 31.679C159.803 32.1051 158.303 33.2131 158.303 35.3949C158.303 37.8835 160.195 39.2812 162.453 39.2812ZM162.555 38.3182C160.723 38.3182 159.342 37.2188 159.342 35.429C159.342 33.8097 160.536 32.9403 163.399 32.5994C164.678 32.4545 166.212 32.2159 166.757 31.7642V33.6903C166.757 36.3494 165.01 38.3182 162.555 38.3182Z" fill="white"/>
<path d="M97.4852 39H96.9852V39.5H97.4852V39ZM98.5506 39V39.5H99.0506V39H98.5506ZM98.5506 31.7045V31.2045H98.0506V31.7045H98.5506ZM103.758 31.6534L104.198 31.416L104.037 31.1172L103.7 31.1568L103.758 31.6534ZM107.721 39L107.281 39.2374L107.423 39.5H107.721V39ZM108.948 39V39.5H109.789L109.388 38.7613L108.948 39ZM104.832 31.4233L104.684 30.9456L104.101 31.1259L104.392 31.662L104.832 31.4233ZM97.4852 21.5455V21.0455H96.9852V21.5455H97.4852ZM98.5506 30.7074H98.0506V31.2074H98.5506V30.7074ZM98.5506 22.5341V22.0341H98.0506V22.5341H98.5506ZM97.4852 39.5H98.5506V38.5H97.4852V39.5ZM99.0506 39V31.7045H98.0506V39H99.0506ZM98.5506 32.2045H102.872V31.2045H98.5506V32.2045ZM102.872 32.2045C103.197 32.2045 103.507 32.1864 103.816 32.15L103.7 31.1568C103.43 31.1886 103.159 31.2045 102.872 31.2045V32.2045ZM103.318 31.8908L107.281 39.2374L108.161 38.7626L104.198 31.416L103.318 31.8908ZM107.721 39.5H108.948V38.5H107.721V39.5ZM109.388 38.7613L105.271 31.1846L104.392 31.662L108.509 39.2387L109.388 38.7613ZM104.98 31.901C107.33 31.174 108.681 29.2013 108.681 26.6506H107.681C107.681 28.8043 106.578 30.3601 104.684 30.9456L104.98 31.901ZM108.681 26.6506C108.681 25.0252 108.141 23.6128 107.116 22.6066C106.091 21.6006 104.627 21.0455 102.863 21.0455V22.0455C104.415 22.0455 105.61 22.53 106.415 23.3203C107.22 24.1102 107.681 25.2504 107.681 26.6506H108.681ZM102.863 21.0455H97.4852V22.0455H102.863V21.0455ZM96.9852 21.5455V39H97.9852V21.5455H96.9852ZM99.0506 30.7074V22.5341H98.0506V30.7074H99.0506ZM98.5506 23.0341H102.838V22.0341H98.5506V23.0341ZM102.838 23.0341C104.078 23.0341 105.015 23.4084 105.639 24.017C106.262 24.6246 106.624 25.5156 106.624 26.6506H107.624C107.624 25.2969 107.186 24.1297 106.337 23.3012C105.488 22.4737 104.281 22.0341 102.838 22.0341V23.0341ZM106.624 26.6506C106.624 27.7756 106.262 28.6503 105.643 29.245C105.021 29.8417 104.086 30.2074 102.846 30.2074V31.2074C104.282 31.2074 105.487 30.7804 106.335 29.9666C107.185 29.1508 107.624 27.9971 107.624 26.6506H106.624ZM102.846 30.2074H98.5506V31.2074H102.846V30.2074ZM113.832 25.9091H114.332V25.4091H113.832V25.9091ZM112.792 25.9091V25.4091H112.292V25.9091H112.792ZM121.093 36.8778V36.3778H120.771L120.638 36.6705L121.093 36.8778ZM121.178 36.8778H121.678V36.3778H121.178V36.8778ZM121.178 39H120.678V39.5H121.178V39ZM122.218 39V39.5H122.718V39H122.218ZM122.218 25.9091H122.718V25.4091H122.218V25.9091ZM121.178 25.9091V25.4091H120.678V25.9091H121.178ZM120.678 34.3551C120.678 36.3921 119.186 37.6562 117.394 37.6562V38.6562C119.693 38.6562 121.678 36.9886 121.678 34.3551H120.678ZM117.394 37.6562C116.467 37.6562 115.709 37.3324 115.184 36.7963C114.658 36.2597 114.332 35.4766 114.332 34.5H113.332C113.332 35.7052 113.738 36.7503 114.47 37.4963C115.201 38.2429 116.225 38.6562 117.394 38.6562V37.6562ZM114.332 34.5V25.9091H113.332V34.5H114.332ZM113.832 25.4091H112.792V26.4091H113.832V25.4091ZM112.292 25.9091V34.5426H113.292V25.9091H112.292ZM112.292 34.5426C112.292 36.0823 112.784 37.3717 113.666 38.2789C114.548 39.1866 115.781 39.6705 117.181 39.6705V38.6705C116.016 38.6705 115.054 38.2722 114.383 37.5819C113.712 36.8911 113.292 35.8666 113.292 34.5426H112.292ZM117.181 39.6705C119.222 39.6705 120.845 38.6289 121.548 37.0852L120.638 36.6705C120.114 37.8199 118.873 38.6705 117.181 38.6705V39.6705ZM121.093 37.3778H121.178V36.3778H121.093V37.3778ZM120.678 36.8778V39H121.678V36.8778H120.678ZM121.178 39.5H122.218V38.5H121.178V39.5ZM122.718 39V25.9091H121.718V39H122.718ZM122.218 25.4091H121.178V26.4091H122.218V25.4091ZM120.678 25.9091V34.3551H121.678V25.9091H120.678ZM135.564 28.7301L135.693 29.2134L136.204 29.0776L136.04 28.5745L135.564 28.7301ZM130.238 32.6676L130.357 32.182L130.356 32.1818L130.238 32.6676ZM132.326 33.179L132.445 32.6934L132.445 32.6933L132.326 33.179ZM127.579 35.7017L128.067 35.5948L127.956 35.0887L127.454 35.2174L127.579 35.7017ZM126.581 35.9574L126.457 35.4731L125.993 35.5921L126.092 36.0611L126.581 35.9574ZM132.599 32.2159L132.477 32.701L132.478 32.7012L132.599 32.2159ZM130.587 31.7131L130.708 31.228L130.706 31.2274L130.587 31.7131ZM134.601 28.9858L134.127 29.1439L134.276 29.5896L134.73 29.4691L134.601 28.9858ZM136.04 28.5745C135.699 27.5346 135.143 26.6838 134.341 26.0959C133.538 25.5076 132.529 25.2131 131.337 25.2131V26.2131C132.361 26.2131 133.151 26.464 133.75 26.9026C134.349 27.3417 134.799 27.9995 135.089 28.8857L136.04 28.5745ZM131.337 25.2131C129.991 25.2131 128.796 25.6024 127.928 26.3153C127.053 27.034 126.533 28.065 126.533 29.2756H127.533C127.533 28.3725 127.912 27.6222 128.563 27.0881C129.22 26.5482 130.178 26.2131 131.337 26.2131V25.2131ZM126.533 29.2756C126.533 30.2331 126.839 31.0769 127.468 31.7505C128.088 32.4154 128.988 32.8785 130.12 33.1535L130.356 32.1818C129.348 31.9368 128.646 31.5477 128.199 31.0684C127.76 30.5978 127.533 30.0056 127.533 29.2756H126.533ZM130.119 33.1533L132.207 33.6646L132.445 32.6933L130.357 32.182L130.119 33.1533ZM132.206 33.6645C132.927 33.8418 133.413 34.1128 133.715 34.4317C134.008 34.7408 134.161 35.1277 134.161 35.6165H135.161C135.161 34.8951 134.926 34.2549 134.441 33.7437C133.966 33.2423 133.284 32.8997 132.445 32.6934L132.206 33.6645ZM134.161 35.6165C134.161 36.2432 133.884 36.7754 133.374 37.1643C132.856 37.5602 132.077 37.8182 131.09 37.8182V38.8182C132.242 38.8182 133.249 38.5179 133.981 37.9593C134.722 37.3936 135.161 36.575 135.161 35.6165H134.161ZM131.09 37.8182C130.199 37.8182 129.529 37.6104 129.049 37.2517C128.573 36.8965 128.234 36.3566 128.067 35.5948L127.09 35.8086C127.298 36.7599 127.748 37.5282 128.45 38.053C129.148 38.5743 130.047 38.8182 131.09 38.8182V37.8182ZM127.454 35.2174L126.457 35.4731L126.706 36.4417L127.703 36.186L127.454 35.2174ZM126.092 36.0611C126.341 37.2328 126.922 38.1743 127.8 38.8175C128.673 39.4569 129.8 39.7727 131.099 39.7727V38.7727C129.959 38.7727 129.054 38.4962 128.391 38.0107C127.733 37.5289 127.274 36.8127 127.071 35.8537L126.092 36.0611ZM131.099 39.7727C132.551 39.7727 133.823 39.3687 134.743 38.633C135.671 37.8912 136.218 36.8272 136.218 35.5824H135.218C135.218 36.5109 134.819 37.2921 134.119 37.8521C133.411 38.4182 132.373 38.7727 131.099 38.7727V39.7727ZM136.218 35.5824C136.218 34.6261 135.915 33.7875 135.299 33.1194C134.692 32.4595 133.813 32.0019 132.719 31.7306L132.478 32.7012C133.447 32.9413 134.128 33.3231 134.564 33.7968C134.992 34.2622 135.218 34.8512 135.218 35.5824H136.218ZM132.72 31.7308L130.708 31.228L130.466 32.1981L132.477 32.701L132.72 31.7308ZM130.706 31.2274C129.9 31.03 129.366 30.7537 129.037 30.4306C128.723 30.1221 128.564 29.7408 128.564 29.2415H127.564C127.564 29.9864 127.815 30.6322 128.336 31.144C128.842 31.6412 129.569 31.9785 130.468 32.1987L130.706 31.2274ZM128.564 29.2415C128.564 28.6349 128.825 28.1316 129.287 27.7681C129.759 27.3978 130.461 27.1591 131.337 27.1591V26.1591C130.288 26.1591 129.353 26.4446 128.67 26.9819C127.977 27.5261 127.564 28.314 127.564 29.2415H128.564ZM131.337 27.1591C132.146 27.1591 132.731 27.3598 133.16 27.6844C133.592 28.0109 133.911 28.4968 134.127 29.1439L135.076 28.8277C134.814 28.043 134.396 27.3655 133.763 26.8867C133.127 26.4058 132.318 26.1591 131.337 26.1591V27.1591ZM134.73 29.4691L135.693 29.2134L135.436 28.2469L134.473 28.5025L134.73 29.4691ZM148.355 28.7301L148.483 29.2134L148.995 29.0776L148.83 28.5745L148.355 28.7301ZM143.028 32.6676L143.147 32.182L143.146 32.1818L143.028 32.6676ZM145.116 33.179L145.236 32.6934L145.235 32.6933L145.116 33.179ZM140.369 35.7017L140.857 35.5948L140.747 35.0887L140.245 35.2174L140.369 35.7017ZM139.372 35.9574L139.248 35.4731L138.783 35.5921L138.883 36.0611L139.372 35.9574ZM145.389 32.2159L145.268 32.701L145.269 32.7012L145.389 32.2159ZM143.377 31.7131L143.499 31.228L143.496 31.2274L143.377 31.7131ZM147.392 28.9858L146.917 29.1439L147.066 29.5896L147.52 29.4691L147.392 28.9858ZM148.83 28.5745C148.489 27.5346 147.934 26.6838 147.131 26.0959C146.328 25.5076 145.319 25.2131 144.127 25.2131V26.2131C145.152 26.2131 145.941 26.464 146.54 26.9026C147.14 27.3417 147.589 27.9995 147.88 28.8857L148.83 28.5745ZM144.127 25.2131C142.781 25.2131 141.587 25.6024 140.719 26.3153C139.843 27.034 139.323 28.065 139.323 29.2756H140.323C140.323 28.3725 140.703 27.6222 141.353 27.0881C142.011 26.5482 142.968 26.2131 144.127 26.2131V25.2131ZM139.323 29.2756C139.323 30.2331 139.629 31.0769 140.258 31.7505C140.878 32.4154 141.779 32.8785 142.91 33.1535L143.146 32.1818C142.138 31.9368 141.436 31.5477 140.989 31.0684C140.55 30.5978 140.323 30.0056 140.323 29.2756H139.323ZM142.909 33.1533L144.997 33.6646L145.235 32.6933L143.147 32.182L142.909 33.1533ZM144.997 33.6645C145.718 33.8418 146.203 34.1128 146.506 34.4317C146.799 34.7408 146.951 35.1277 146.951 35.6165H147.951C147.951 34.8951 147.716 34.2549 147.231 33.7437C146.756 33.2423 146.074 32.8997 145.236 32.6934L144.997 33.6645ZM146.951 35.6165C146.951 36.2432 146.674 36.7754 146.165 37.1643C145.646 37.5602 144.868 37.8182 143.88 37.8182V38.8182C145.032 38.8182 146.039 38.5179 146.771 37.9593C147.513 37.3936 147.951 36.575 147.951 35.6165H146.951ZM143.88 37.8182C142.989 37.8182 142.319 37.6104 141.839 37.2517C141.363 36.8965 141.024 36.3566 140.857 35.5948L139.881 35.8086C140.089 36.7599 140.538 37.5282 141.241 38.053C141.939 38.5743 142.837 38.8182 143.88 38.8182V37.8182ZM140.245 35.2174L139.248 35.4731L139.496 36.4417L140.493 36.186L140.245 35.2174ZM138.883 36.0611C139.131 37.2328 139.712 38.1743 140.59 38.8175C141.463 39.4569 142.591 39.7727 143.889 39.7727V38.7727C142.749 38.7727 141.844 38.4962 141.181 38.0107C140.523 37.5289 140.064 36.8127 139.861 35.8537L138.883 36.0611ZM143.889 39.7727C145.342 39.7727 146.614 39.3687 147.534 38.633C148.461 37.8912 149.008 36.8272 149.008 35.5824H148.008C148.008 36.5109 147.609 37.2921 146.909 37.8521C146.201 38.4182 145.163 38.7727 143.889 38.7727V39.7727ZM149.008 35.5824C149.008 34.6261 148.705 33.7875 148.09 33.1194C147.482 32.4595 146.603 32.0019 145.509 31.7306L145.269 32.7012C146.237 32.9413 146.918 33.3231 147.354 33.7968C147.783 34.2622 148.008 34.8512 148.008 35.5824H149.008ZM145.51 31.7308L143.499 31.228L143.256 32.1981L145.268 32.701L145.51 31.7308ZM143.496 31.2274C142.691 31.03 142.156 30.7537 141.827 30.4306C141.513 30.1221 141.355 29.7408 141.355 29.2415H140.355C140.355 29.9864 140.605 30.6322 141.127 31.144C141.633 31.6412 142.36 31.9785 143.258 32.1987L143.496 31.2274ZM141.355 29.2415C141.355 28.6349 141.615 28.1316 142.078 27.7681C142.549 27.3978 143.251 27.1591 144.127 27.1591V26.1591C143.078 26.1591 142.143 26.4446 141.46 26.9819C140.767 27.5261 140.355 28.314 140.355 29.2415H141.355ZM144.127 27.1591C144.936 27.1591 145.521 27.3598 145.95 27.6844C146.382 28.0109 146.702 28.4968 146.917 29.1439L147.866 28.8277C147.604 28.043 147.187 27.3655 146.553 26.8867C145.917 26.4058 145.108 26.1591 144.127 26.1591V27.1591ZM147.52 29.4691L148.483 29.2134L148.226 28.2469L147.263 28.5025L147.52 29.4691ZM152.878 39H152.378V39.5H152.878V39ZM153.909 39V39.5H154.409V39H153.909ZM153.909 25.9091H154.409V25.4091H153.909V25.9091ZM152.878 25.9091V25.4091H152.378V25.9091H152.878ZM152.878 39.5H153.909V38.5H152.878V39.5ZM154.409 39V25.9091H153.409V39H154.409ZM153.909 25.4091H152.878V26.4091H153.909V25.4091ZM152.378 25.9091V39H153.378V25.9091H152.378ZM153.398 24.0909C154.124 24.0909 154.733 23.5106 154.733 22.7727H153.733C153.733 22.9383 153.592 23.0909 153.398 23.0909V24.0909ZM154.733 22.7727C154.733 22.0349 154.124 21.4545 153.398 21.4545V22.4545C153.592 22.4545 153.733 22.6072 153.733 22.7727H154.733ZM153.398 21.4545C152.678 21.4545 152.054 22.0284 152.054 22.7727H153.054C153.054 22.6137 153.197 22.4545 153.398 22.4545V21.4545ZM152.054 22.7727C152.054 23.5171 152.678 24.0909 153.398 24.0909V23.0909C153.197 23.0909 153.054 22.9318 153.054 22.7727H152.054ZM166.68 36.6392V36.1392H166.362L166.227 36.4283L166.68 36.6392ZM166.757 36.6392H167.257V36.1392H166.757V36.6392ZM166.757 39H166.257V39.5H166.757V39ZM167.797 39V39.5H168.297V39H167.797ZM158.678 28.5085L158.213 28.3236L158.024 28.798L158.502 28.9769L158.678 28.5085ZM159.658 28.875L159.483 29.3433L159.942 29.5153L160.123 29.0586L159.658 28.875ZM163.297 31.679L163.237 31.1825L163.236 31.1827L163.297 31.679ZM163.399 32.5994L163.343 32.1026L163.34 32.1029L163.399 32.5994ZM166.757 31.7642H167.257V30.701L166.438 31.3791L166.757 31.7642ZM162.453 39.7812C164.745 39.7812 166.378 38.4755 167.134 36.8501L166.227 36.4283C165.619 37.7347 164.32 38.7812 162.453 38.7812V39.7812ZM166.68 37.1392H166.757V36.1392H166.68V37.1392ZM166.257 36.6392V39H167.257V36.6392H166.257ZM166.757 39.5H167.797V38.5H166.757V39.5ZM168.297 39V29.8551H167.297V39H168.297ZM168.297 29.8551C168.297 28.2864 167.707 27.1044 166.758 26.3241C165.824 25.5553 164.588 25.2131 163.339 25.2131V26.2131C164.418 26.2131 165.41 26.51 166.123 27.0963C166.822 27.6712 167.297 28.5602 167.297 29.8551H168.297ZM163.339 25.2131C161.184 25.2131 159.061 26.1928 158.213 28.3236L159.142 28.6935C159.794 27.0572 161.455 26.2131 163.339 26.2131V25.2131ZM158.502 28.9769L159.483 29.3433L159.833 28.4067L158.853 28.0402L158.502 28.9769ZM160.123 29.0586C160.546 27.9852 161.668 27.1676 163.365 27.1676V26.1676C161.329 26.1676 159.792 27.1738 159.193 28.6914L160.123 29.0586ZM163.365 27.1676C164.327 27.1676 165.043 27.4439 165.513 27.8809C165.98 28.3142 166.257 28.9531 166.257 29.7869H167.257C167.257 28.7202 166.895 27.7994 166.194 27.1482C165.497 26.5007 164.516 26.1676 163.365 26.1676V27.1676ZM166.257 29.7869V30.3324H167.257V29.7869H166.257ZM166.257 30.3324C166.257 30.4423 166.225 30.5041 166.159 30.5651C166.072 30.6446 165.912 30.7319 165.634 30.8136C165.07 30.9795 164.264 31.0597 163.237 31.1825L163.356 32.1754C164.324 32.0596 165.248 31.9694 165.916 31.773C166.254 31.6736 166.584 31.5319 166.835 31.3019C167.106 31.0534 167.257 30.7253 167.257 30.3324H166.257ZM163.236 31.1827C161.463 31.3989 160.109 31.7955 159.191 32.4772C158.236 33.1868 157.803 34.1676 157.803 35.3949H158.803C158.803 34.4404 159.119 33.7763 159.787 33.2799C160.493 32.7556 161.636 32.3852 163.357 32.1753L163.236 31.1827ZM157.803 35.3949C157.803 36.7762 158.332 37.8875 159.202 38.6477C160.063 39.4008 161.224 39.7812 162.453 39.7812V38.7812C161.424 38.7812 160.509 38.4629 159.86 37.8949C159.219 37.334 158.803 36.5023 158.803 35.3949H157.803ZM162.555 37.8182C161.737 37.8182 161.057 37.5729 160.59 37.1672C160.129 36.7677 159.842 36.1855 159.842 35.429H158.842C158.842 36.4623 159.246 37.3246 159.934 37.9223C160.615 38.5138 161.542 38.8182 162.555 38.8182V37.8182ZM159.842 35.429C159.842 34.7693 160.072 34.3052 160.585 33.9435C161.138 33.554 162.051 33.2635 163.458 33.0959L163.34 32.1029C161.884 32.2763 160.768 32.5909 160.009 33.1261C159.21 33.6891 158.842 34.4693 158.842 35.429H159.842ZM163.455 33.0963C164.1 33.0232 164.823 32.9251 165.46 32.7852C165.779 32.7153 166.085 32.633 166.354 32.5344C166.617 32.4381 166.876 32.315 167.076 32.1493L166.438 31.3791C166.366 31.4393 166.228 31.5154 166.01 31.5954C165.798 31.6731 165.539 31.7442 165.246 31.8085C164.66 31.9371 163.977 32.0308 163.343 32.1026L163.455 33.0963ZM166.257 31.7642V33.6903H167.257V31.7642H166.257ZM166.257 33.6903C166.257 36.1232 164.686 37.8182 162.555 37.8182V38.8182C165.333 38.8182 167.257 36.5757 167.257 33.6903H166.257Z" fill="white"/>
</g>
<defs>
<clipPath id="clip0">
<rect width="176" height="52" fill="white"/>
</clipPath>
</defs>
</svg>
