<svg width="176" height="52" viewBox="0 0 176 52" fill="none" xmlns="http://www.w3.org/2000/svg">
<g clip-path="url(#clip0)">
<path d="M7.76534 23.3826L10.4107 22.0738L14.592 15.7919L15.872 15.2685L17.2374 21.6376L15.4454 21.8993L14.08 19.2819L13.056 23.3826H17.5787L22.272 24.604L24.1494 23.3826L27.3067 26.698L28.672 20.5906L30.8907 22.8591L32.256 20.9396L34.4747 20.3289L37.7174 17.2752L38.2294 15.7919L40.8747 16.2282L41.9841 17.7114L40.0214 21.8993L44.8854 19.3691V18.1476L46.7627 17.7114L48.8107 19.8054L50.8587 17.2752V15.5302L54.1867 13.1745L55.5521 11.1678H57.6854L61.4401 3.40268L64.6828 0L65.8774 1.91946L64.0001 4.36242L64.6828 5.93289L66.4748 6.28188L67.9254 12.7383V18.1476L70.4854 21.7248L71.7654 26.698L67.3281 23.8188L65.3654 15.5302L64.1707 15.7919L64.0001 21.3758L60.7574 26.698L59.8187 34.8121L62.0374 35.3356L62.9761 34.2013L65.1094 36.6443L66.7307 43.9732L66.5601 48.6846H64.5121L63.7441 42.0537L62.2934 44.0604L59.1361 43.3624L56.5761 41.1812L53.6747 42.2282L53.8454 46.9396L51.5414 47.5503L48.1281 50.1678L44.0321 49.6443L42.4107 48.6846L39.8507 49.1208L40.7041 50.1678L38.6561 51.3893L37.0347 50.604L33.9627 52L29.2694 49.6443L27.4774 45.4564L25.9414 45.6309L24.1494 44.1477L24.064 43.0134L18.3467 42.4027L17.408 45.5436L13.824 43.8859L12.032 40.8322H8.19201L7.76534 45.7181L5.54667 46.4161L4.43734 50.8658L3.584 50.0805L0 40.745L4.26667 38.651L3.584 34.5503L2.90134 30.3624L4.77867 27.6577L4.18134 26L6.74134 23.2081L7.76534 23.3826V23.3826ZM64.5121 33.6779L68.4374 39.6107L69.7174 39.0872L68.0961 36.6443L64.5121 32.8054V33.6779V33.6779ZM24.4054 21.6376V19.8926L27.392 17.7114L29.952 16.4027H26.9654L24.32 17.9732L22.6987 19.4564V21.6376H24.4054V21.6376Z" fill="white"/>
<path d="M100.696 41L97.456 36.32H97.264H93.88V41H89.992V24.2H97.264C98.752 24.2 100.04 24.448 101.128 24.944C102.232 25.44 103.08 26.144 103.672 27.056C104.264 27.968 104.56 29.048 104.56 30.296C104.56 31.544 104.256 32.624 103.648 33.536C103.056 34.432 102.208 35.12 101.104 35.6L104.872 41H100.696ZM100.624 30.296C100.624 29.352 100.32 28.632 99.712 28.136C99.104 27.624 98.216 27.368 97.048 27.368H93.88V33.224H97.048C98.216 33.224 99.104 32.968 99.712 32.456C100.32 31.944 100.624 31.224 100.624 30.296ZM120.384 28.088V41H116.832V39.464C116.336 40.024 115.744 40.456 115.056 40.76C114.368 41.048 113.624 41.192 112.824 41.192C111.128 41.192 109.784 40.704 108.792 39.728C107.8 38.752 107.304 37.304 107.304 35.384V28.088H111.048V34.832C111.048 36.912 111.92 37.952 113.664 37.952C114.56 37.952 115.28 37.664 115.824 37.088C116.368 36.496 116.64 35.624 116.64 34.472V28.088H120.384ZM128.197 41.192C127.125 41.192 126.077 41.064 125.053 40.808C124.029 40.536 123.213 40.2 122.605 39.8L123.853 37.112C124.429 37.48 125.125 37.784 125.941 38.024C126.757 38.248 127.557 38.36 128.341 38.36C129.925 38.36 130.717 37.968 130.717 37.184C130.717 36.816 130.501 36.552 130.069 36.392C129.637 36.232 128.973 36.096 128.077 35.984C127.021 35.824 126.149 35.64 125.461 35.432C124.773 35.224 124.173 34.856 123.661 34.328C123.165 33.8 122.917 33.048 122.917 32.072C122.917 31.256 123.149 30.536 123.613 29.912C124.093 29.272 124.781 28.776 125.677 28.424C126.589 28.072 127.661 27.896 128.893 27.896C129.805 27.896 130.709 28 131.605 28.208C132.517 28.4 133.269 28.672 133.861 29.024L132.613 31.688C131.477 31.048 130.237 30.728 128.893 30.728C128.093 30.728 127.493 30.84 127.093 31.064C126.693 31.288 126.493 31.576 126.493 31.928C126.493 32.328 126.709 32.608 127.141 32.768C127.573 32.928 128.261 33.08 129.205 33.224C130.261 33.4 131.125 33.592 131.797 33.8C132.469 33.992 133.053 34.352 133.549 34.88C134.045 35.408 134.293 36.144 134.293 37.088C134.293 37.888 134.053 38.6 133.573 39.224C133.093 39.848 132.389 40.336 131.461 40.688C130.549 41.024 129.461 41.192 128.197 41.192ZM140.947 41.192C139.875 41.192 138.827 41.064 137.803 40.808C136.779 40.536 135.963 40.2 135.355 39.8L136.603 37.112C137.179 37.48 137.875 37.784 138.691 38.024C139.507 38.248 140.307 38.36 141.091 38.36C142.675 38.36 143.467 37.968 143.467 37.184C143.467 36.816 143.251 36.552 142.819 36.392C142.387 36.232 141.723 36.096 140.827 35.984C139.771 35.824 138.899 35.64 138.211 35.432C137.523 35.224 136.923 34.856 136.411 34.328C135.915 33.8 135.667 33.048 135.667 32.072C135.667 31.256 135.899 30.536 136.363 29.912C136.843 29.272 137.531 28.776 138.427 28.424C139.339 28.072 140.411 27.896 141.643 27.896C142.555 27.896 143.459 28 144.355 28.208C145.267 28.4 146.019 28.672 146.611 29.024L145.363 31.688C144.227 31.048 142.987 30.728 141.643 30.728C140.843 30.728 140.243 30.84 139.843 31.064C139.443 31.288 139.243 31.576 139.243 31.928C139.243 32.328 139.459 32.608 139.891 32.768C140.323 32.928 141.011 33.08 141.955 33.224C143.011 33.4 143.875 33.592 144.547 33.8C145.219 33.992 145.803 34.352 146.299 34.88C146.795 35.408 147.043 36.144 147.043 37.088C147.043 37.888 146.803 38.6 146.323 39.224C145.843 39.848 145.139 40.336 144.211 40.688C143.299 41.024 142.211 41.192 140.947 41.192ZM149.353 28.088H153.097V41H149.353V28.088ZM151.225 26.288C150.537 26.288 149.977 26.088 149.545 25.688C149.113 25.288 148.897 24.792 148.897 24.2C148.897 23.608 149.113 23.112 149.545 22.712C149.977 22.312 150.537 22.112 151.225 22.112C151.913 22.112 152.473 22.304 152.905 22.688C153.337 23.072 153.553 23.552 153.553 24.128C153.553 24.752 153.337 25.272 152.905 25.688C152.473 26.088 151.913 26.288 151.225 26.288ZM161.78 27.896C163.78 27.896 165.316 28.376 166.388 29.336C167.46 30.28 167.996 31.712 167.996 33.632V41H164.492V39.392C163.788 40.592 162.476 41.192 160.556 41.192C159.564 41.192 158.7 41.024 157.964 40.688C157.244 40.352 156.692 39.888 156.308 39.296C155.924 38.704 155.732 38.032 155.732 37.28C155.732 36.08 156.18 35.136 157.076 34.448C157.988 33.76 159.388 33.416 161.276 33.416H164.252C164.252 32.6 164.004 31.976 163.508 31.544C163.012 31.096 162.268 30.872 161.276 30.872C160.588 30.872 159.908 30.984 159.236 31.208C158.58 31.416 158.02 31.704 157.556 32.072L156.212 29.456C156.916 28.96 157.756 28.576 158.732 28.304C159.724 28.032 160.74 27.896 161.78 27.896ZM161.492 38.672C162.132 38.672 162.7 38.528 163.196 38.24C163.692 37.936 164.044 37.496 164.252 36.92V35.6H161.684C160.148 35.6 159.38 36.104 159.38 37.112C159.38 37.592 159.564 37.976 159.932 38.264C160.316 38.536 160.836 38.672 161.492 38.672Z" fill="white"/>
</g>
<defs>
<clipPath id="clip0">
<rect width="176" height="52" fill="white"/>
</clipPath>
</defs>
</svg>
